# xmcd CD database file
#
# Track frame offsets:
#	167
#	13375
#	25917
#	43945
#	57420
#	76637
#	96257
#	110510
#	130327
#
# Disc length: 2095 seconds
#
# Revision: 2
# Processed by: cddbd v1.5.1PL2 Copyright (c) Steve Scherf et al.
# Submitted via: CDex 1.51
#
DISCID=75082d09
DTITLE=James Cotton - Take Me Back
DYEAR=1988
DGENRE=Blues
TTITLE0=My Babe (Walter Jacobs)
TTITLE1=Well, I Done Got Over It (Eddie Jones)
TTITLE2=Clouds in My Heart (Traditional)
TTITLE3=Take Me Back (Walter Jacobs)
TTITLE4=Honest I Do (Jimmy Reed)
TTITLE5=Take Out Some Insurance (Jesse Stone)
TTITLE6=Killing Floor (Lester Burnett)
TTITLE7=Dust My Broom (Robert Johnson)
TTITLE8=Hungry Country Girl (Otis Spann)
EXTD=Blind Pig Records\nJames Cotton:  Vocals and Harmonica\nSam Lawhorn:  Guitar\nPinetop Perkins:  Piano\nBob Anderson:  Bass\nSam Lay:  Drums\nJohn Primer:  Guitar YEAR: 1988
EXTT0=Walter Jacobs
EXTT1=Eddie Jones
EXTT2=Traditional
EXTT3=Walter Jacobs
EXTT4=Jimmy Reed
EXTT5=Jesse Stone
EXTT6=Lester Burnett
EXTT7=Robert Johnson
EXTT8=Otis Spann
PLAYORDER=
